<svg xmlns="http://www.w3.org/2000/svg" viewBox="0 0 720 200" fill="none" stroke="#94462e" stroke-width="3" stroke-linecap="round" stroke-linejoin="round">
  <!-- Shared drawing weights: contour 3, structure 2, detail 1.25. Tonal fills matched to the subject card. -->
  <style>
    .detail { stroke-width:2; }
    .fine { stroke-width:1.25; }
    .wash { fill:#e66c47; }
    .paper { fill:#f5734c; }
    .accent { fill:#cc603f; }
    .tint { fill:#cc603f; stroke:none; }
    .ink { fill:#94462e; stroke:none; }
  </style>
  <g data-motif="erlenmeyer-flask" transform="translate(68 13) rotate(-8 24 24)">
    <path class="tint" d="M10.55 31q13.45 3 26.9 0L42 38q3 6-4 6H10q-7 0-4-6Z"/>
    <path d="M19 7v11L6 38q-3 6 4 6h28q7 0 4-6L29 18V7"/>
    <rect class="paper detail" x="16" y="3" width="16" height="4" rx="1.5"/>
    <path class="detail" d="M10.55 31q13.45 3 26.9 0"/>
    <path class="fine" d="M23 11v7m4 9h5m-5 10h7M11 37l3-5"/>
    <circle class="paper fine" cx="19" cy="38" r="1.8"/>
  </g>
  <g data-motif="test-tube" transform="translate(244 133) rotate(6 24 24)">
    <path class="tint" d="M17 25q7 2 14 0v11a7 7 0 0 1-14 0Z"/>
    <path d="M17 8v28a7 7 0 0 0 14 0V8"/>
    <rect class="wash" x="14" y="3" width="20" height="5" rx="2"/>
    <path class="detail" d="M17 25q7 2 14 0"/>
    <path class="fine" d="M21 12v8m6 11h4m-4 5h4"/>
    <circle class="detail" cx="39" cy="17" r="3"/><circle class="fine" cx="8" cy="26" r="2"/>
    <circle class="ink" cx="24" cy="17" r="1.3"/>
  </g>
  <g data-motif="molecular-bonds" transform="translate(420 13) rotate(8 24 24)">
    <path class="detail" d="M9.6 9.1 36.6 18.1M8.4 12.9 35.4 21.9M9 11 23 40M36 20 23 40"/>
    <circle class="wash" cx="9" cy="11" r="7"/>
    <circle class="accent" cx="36" cy="20" r="9"/>
    <circle class="wash" cx="23" cy="40" r="6"/>
    <path class="fine" d="M6 9q1-2 3-2m23 10q1-2 4-2m-15 23 2-1"/>
  </g>
  <g data-motif="bunsen-burner" transform="translate(596 133) rotate(-6 24 24)">
    <path class="accent" d="M24 2C24 9 17 11 17 17a7 7 0 0 0 14 0c0-6-5-9-7-15Z"/>
    <path class="fine" d="M24 14c-4 4-3 8 0 8s4-4 0-8Z"/>
    <path class="wash" d="M20 27h8v15h7a1 1 0 0 1 1 1v3H12v-3a1 1 0 0 1 1-1h7Z"/>
    <path class="detail" d="M18 27h12M28 36h8q2 0 2-2v-2"/>
    <path class="fine" d="M24 31v7M35 33h6"/>
  </g>
</svg>
