<svg width="56" height="56" viewBox="0 0 56 56" fill="none" xmlns="http://www.w3.org/2000/svg">
  <path d="M28 6C15.3 6 5 15.2 5 26.5c0 6.3 3.2 12 8.3 15.7l-1.5 8.3 9.2-4.7c2.2.7 4.5 1.1 7 1.1 12.7 0 23-9.2 23-20.5S40.7 6 28 6Z" fill="#1CB0F6"/>
  <path d="M11 24.5C12.1 16.6 19.3 11 28.2 11c5.6 0 10.7 2.2 14.1 5.8A22.4 22.4 0 0 0 28 12c-8 0-14.8 4-17 9.8v2.7Z" fill="#84D8FF"/>
  <path d="M24.8 32.7h6v-1.2c0-2.4.8-3.5 3-4.7 3.4-1.9 5.2-4.2 5.2-7.7 0-5.1-4.1-8.4-10.4-8.4-6.2 0-10.6 3.6-11.1 9.2l5.9.7c.3-3 2.2-4.6 5-4.6 2.8 0 4.6 1.4 4.6 3.7 0 1.9-1 3-3.3 4.2-3.2 1.8-4.9 3.9-4.9 7.7v1.1Z" fill="#FFF"/>
  <circle cx="27.8" cy="39.2" r="3.2" fill="#FFF"/>
</svg>
